<svg data-v-0dd9719b="" version="1.0" xmlns="http://www.w3.org/2000/svg" xmlns:xlink="http://www.w3.org/1999/xlink" width="100%" height="100%" viewBox="0 0 340.000000 250.000000" preserveAspectRatio="xMidYMid meet" color-interpolation-filters="sRGB" style="margin: auto;"> <rect data-v-0dd9719b="" x="0" y="0" width="100%" height="100%" fill="#ffffff" fill-opacity="1" class="background"></rect> <rect data-v-0dd9719b="" x="0" y="0" width="100%" height="100%" fill="url(#watermark)" fill-opacity="1" class="watermarklayer"></rect> <g data-v-0dd9719b="" fill="#333333" class="icon-text-wrapper icon-svg-group iconsvg" transform="translate(57.03825378417969,98.03479591369626)"><g class="iconsvg-imagesvg" transform="translate(0,3.34588623046875)"><g><rect fill="#333333" fill-opacity="0" stroke-width="2" x="0" y="0" width="95.12" height="43.203764432292004" class="image-rect"></rect> <g class="image-svg-svg"><g fill="url(#CHq3sNrbPJ2rbDe07-NBd)" data-gra-ignore="true"><svg x="0" y="0" width="95.12" height="51.27182367494785" style="overflow: visible;"><svg xmlns="http://www.w3.org/2000/svg" xmlns:xlink="http://www.w3.org/1999/xlink" viewBox="0 0 100.656 45.720000000000006" style="overflow: visible;"><path transform="translate(0 45.720000000000006)" d="M62.64-45.72L52.85 0L36.86 0L43.49-31.10L26.42 0L16.63 0L13.39-32.18L6.48 0L0 0L9.72-45.72L28.08-45.72L30.31-19.94L44.14-45.72L62.64-45.72ZM95.69-45.72L100.66 0L83.81 0L82.80-11.45L69.48-11.45L64.37 0L57.38 0L78.62-45.72L95.69-45.72ZM80.64-36.29L71.86-16.70L82.30-16.70L80.64-36.29Z"></path></svg></svg></g><defs><pattern id="CHq3sNrbPJ2rbDe07-NBd" x="0" y="62.5" width="125" height="125" viewBox="0 0 100 100" preserveAspectRatio="xMidYMid meet" patternTransform="matrix(1,0,0,1,0,0)" patternUnits="userSpaceOnUse"><g data-gra="path-name" fill="#0F7FE0"><svg width="100" height="100" viewBox="0 0 100 100" xmlns="http://www.w3.org/2000/svg">
  <g stroke="none" stroke-width="1" fill-rule="evenodd">
    <g transform="translate(-100.000000, -2309.000000)">
      <path d="M103.813992,2409.0003 L100.001856,2408.99835 L99.9993731,2405.18564 C101.220443,2406.50658 102.493059,2407.77922 103.813992,2409.0003 Z M109.244127,2409.00024 L104.869445,2408.99903 C103.164962,2407.45902 101.539316,2405.83331 99.9993749,2404.12877 L99.9994808,2399.75548 C102.762276,2403.13869 105.860948,2406.2374 109.244127,2409.00024 Z M115.148623,2409.00024 L110.380216,2409.00016 C106.536639,2405.94814 103.051635,2402.4631 99.9996523,2398.61949 L99.9992712,2393.85059 C104.119791,2399.74458 109.254715,2404.8796 115.148623,2409.00024 Z M121.823816,2408.9999 L116.407505,2408.99979 C109.939442,2404.6401 104.359075,2399.05962 99.9995269,2392.59142 L99.9997438,2387.17539 C105.151143,2396.28132 112.718004,2403.84832 121.823816,2408.9999 Z M130.033281,2408.99932 L123.299304,2408.99873 C113.426489,2403.7051 105.293787,2395.57217 100.000475,2385.69909 L100.000492,2378.96593 C105.471769,2392.61883 116.380512,2403.52777 130.033281,2408.99932 Z M144.749905,2408.99983 L132.040533,2409.00001 C117.170276,2403.64251 105.356853,2391.82867 99.9997581,2376.95839 L99.9991666,2364.23869 C102.447683,2387.78032 121.209841,2406.54595 144.749905,2408.99983 Z M199.999791,2364.2507 L200.00009,2376.95939 C194.642887,2391.82903 182.829868,2403.64236 167.960183,2408.99983 L155.250699,2408.99979 C178.786574,2406.54616 197.546157,2387.78657 199.999791,2364.2507 Z M199.999316,2378.96693 L199.999734,2385.69909 C194.706398,2395.57221 186.573644,2403.70518 176.700769,2408.99881 L169.966928,2408.99932 C183.619364,2403.52791 194.527908,2392.61936 199.999316,2378.96693 Z M199.999898,2387.17639 L200.000007,2392.59242 C195.640557,2399.06019 190.060433,2404.64033 183.592704,2408.99979 L178.176393,2408.9999 C187.281871,2403.84851 194.848511,2396.28187 199.999898,2387.17639 Z M200.000238,2393.85159 L199.999762,2398.62049 C196.948102,2402.46354 193.463538,2405.9481 189.620491,2408.99976 L184.851585,2409.00024 C190.74516,2404.87984 195.879837,2399.74516 200.000238,2393.85159 Z M199.999909,2399.75648 L199.99903,2404.13076 C198.459623,2405.83458 196.834582,2407.45962 195.130764,2408.99903 L190.756481,2408.99991 C194.139171,2406.23743 197.23743,2403.13917 199.999909,2399.75648 Z M199.999909,2405.18664 L199.998352,2408.99835 L196.186639,2408.99991 C197.507087,2407.77925 198.779252,2406.50709 199.999909,2405.18664 Z M150.000104,2309.44131 C177.326609,2309.44131 199.558898,2331.6736 199.558898,2359.0001 C199.558898,2386.32661 177.326609,2408.5589 150.000104,2408.5589 C122.673599,2408.5589 100.44131,2386.32661 100.44131,2359.0001 C100.44131,2331.6736 122.673599,2309.44131 150.000104,2309.44131 Z M150.000104,2312.29361 C124.245932,2312.29361 103.293615,2333.24593 103.293615,2359.0001 C103.293615,2384.75428 124.245932,2405.70659 150.000104,2405.70659 C175.754276,2405.70659 196.706594,2384.75428 196.706594,2359.0001 C196.706594,2333.24593 175.754276,2312.29361 150.000104,2312.29361 Z M150.000104,2313.00669 C175.360658,2313.00669 195.993518,2333.63955 195.993518,2359.0001 C195.993518,2384.36066 175.360658,2404.99352 150.000104,2404.99352 C124.63955,2404.99352 104.006691,2384.36066 104.006691,2359.0001 C104.006691,2333.63955 124.63955,2313.00669 150.000104,2313.00669 Z M150.000104,2315.859 C126.211883,2315.859 106.858996,2335.2126 106.858996,2359.0001 C106.858996,2382.78761 126.211883,2402.14121 150.000104,2402.14121 C173.788325,2402.14121 193.141213,2382.78761 193.141213,2359.0001 C193.141213,2335.2126 173.788325,2315.859 150.000104,2315.859 Z M150.000104,2316.57207 C173.39542,2316.57207 192.428137,2335.60479 192.428137,2359.0001 C192.428137,2382.39542 173.39542,2401.42814 150.000104,2401.42814 C126.604788,2401.42814 107.572072,2382.39542 107.572072,2359.0001 C107.572072,2335.60479 126.604788,2316.57207 150.000104,2316.57207 Z M150.000104,2319.42438 C128.177834,2319.42438 110.424377,2337.17783 110.424377,2359.0001 C110.424377,2380.82237 128.177834,2398.57583 150.000104,2398.57583 C171.822374,2398.57583 189.575832,2380.82237 189.575832,2359.0001 C189.575832,2337.17783 171.822374,2319.42438 150.000104,2319.42438 Z M150.000104,2320.13745 C171.428756,2320.13745 188.862756,2337.57074 188.862756,2359.0001 C188.862756,2380.42947 171.428756,2397.86276 150.000104,2397.86276 C128.571452,2397.86276 111.137453,2380.42947 111.137453,2359.0001 C111.137453,2337.57074 128.571452,2320.13745 150.000104,2320.13745 Z M150.000104,2322.98976 C130.143785,2322.98976 113.989757,2339.14379 113.989757,2359.0001 C113.989757,2378.85642 130.143785,2395.01045 150.000104,2395.01045 C169.856423,2395.01045 186.010451,2378.85642 186.010451,2359.0001 C186.010451,2339.14379 169.856423,2322.98976 150.000104,2322.98976 Z M150.000104,2323.70283 C169.462805,2323.70283 185.297375,2339.5374 185.297375,2359.0001 C185.297375,2378.46281 169.462805,2394.29737 150.000104,2394.29737 C130.537403,2394.29737 114.702834,2378.46281 114.702834,2359.0001 C114.702834,2339.5374 130.537403,2323.70283 150.000104,2323.70283 Z M150.000104,2326.55514 C132.109736,2326.55514 117.555138,2341.10974 117.555138,2359.0001 C117.555138,2376.89047 132.109736,2391.44507 150.000104,2391.44507 C167.890472,2391.44507 182.44507,2376.89047 182.44507,2359.0001 C182.44507,2341.10974 167.890472,2326.55514 150.000104,2326.55514 Z M150.000104,2327.26821 C167.497567,2327.26821 181.731994,2341.50335 181.731994,2359.0001 C181.731994,2376.49685 167.497567,2390.73199 150.000104,2390.73199 C132.502641,2390.73199 118.268215,2376.49685 118.268215,2359.0001 C118.268215,2341.50335 132.502641,2327.26821 150.000104,2327.26821 Z M150.000104,2330.12052 C134.075687,2330.12052 121.120519,2343.07569 121.120519,2359.0001 C121.120519,2374.92452 134.075687,2387.87969 150.000104,2387.87969 C165.924521,2387.87969 178.879689,2374.92452 178.879689,2359.0001 C178.879689,2343.07569 165.924521,2330.12052 150.000104,2330.12052 Z M150.000104,2330.8336 C165.530903,2330.8336 178.166613,2343.46931 178.166613,2359.0001 C178.166613,2374.5309 165.530903,2387.16661 150.000104,2387.16661 C134.469305,2387.16661 121.833595,2374.5309 121.833595,2359.0001 C121.833595,2343.46931 134.469305,2330.8336 150.000104,2330.8336 Z M150.000104,2333.6859 C136.041638,2333.6859 124.6859,2345.04164 124.6859,2359.0001 C124.6859,2372.95857 136.041638,2384.31431 150.000104,2384.31431 C163.95857,2384.31431 175.314308,2372.95857 175.314308,2359.0001 C175.314308,2345.04164 163.95857,2333.6859 150.000104,2333.6859 Z M150.000104,2334.39898 C163.564952,2334.39898 174.601232,2345.43526 174.601232,2359.0001 C174.601232,2372.56495 163.564952,2383.60123 150.000104,2383.60123 C136.435256,2383.60123 125.398976,2372.56495 125.398976,2359.0001 C125.398976,2345.43526 136.435256,2334.39898 150.000104,2334.39898 Z M150.000104,2337.25128 C138.007589,2337.25128 128.251281,2347.0083 128.251281,2359.0001 C128.251281,2370.99191 138.007589,2380.74893 150.000104,2380.74893 C161.992619,2380.74893 171.748928,2370.99191 171.748928,2359.0001 C171.748928,2347.0083 161.992619,2337.25128 150.000104,2337.25128 Z M150.000104,2337.96436 C161.599714,2337.96436 171.035851,2347.40049 171.035851,2359.0001 C171.035851,2370.59971 161.599714,2380.03585 150.000104,2380.03585 C138.400494,2380.03585 128.964357,2370.59971 128.964357,2359.0001 C128.964357,2347.40049 138.400494,2337.96436 150.000104,2337.96436 Z M150.000104,2340.81666 C139.97354,2340.81666 131.816662,2348.97354 131.816662,2359.0001 C131.816662,2369.02667 139.97354,2377.18355 150.000104,2377.18355 C160.026668,2377.18355 168.183547,2369.02667 168.183547,2359.0001 C168.183547,2348.97354 160.026668,2340.81666 150.000104,2340.81666 Z M150.000104,2341.52974 C159.63305,2341.52974 167.470471,2349.36645 167.470471,2359.0001 C167.470471,2368.63376 159.63305,2376.47047 150.000104,2376.47047 C140.367158,2376.47047 132.529738,2368.63376 132.529738,2359.0001 C132.529738,2349.36645 140.367158,2341.52974 150.000104,2341.52974 Z M150.000104,2344.38204 C141.939491,2344.38204 135.382043,2350.93949 135.382043,2359.0001 C135.382043,2367.06072 141.939491,2373.61817 150.000104,2373.61817 C158.060717,2373.61817 164.618166,2367.06072 164.618166,2359.0001 C164.618166,2350.93949 158.060717,2344.38204 150.000104,2344.38204 Z M150.000104,2345.09512 C157.667099,2345.09512 163.90509,2351.33311 163.90509,2359.0001 C163.90509,2366.6671 157.667099,2372.90509 150.000104,2372.90509 C142.333109,2372.90509 136.095119,2366.6671 136.095119,2359.0001 C136.095119,2351.33311 142.333109,2345.09512 150.000104,2345.09512 Z M150.000104,2347.94742 C143.905442,2347.94742 138.947424,2352.90544 138.947424,2359.0001 C138.947424,2365.09477 143.905442,2370.05278 150.000104,2370.05278 C156.094766,2370.05278 161.052785,2365.09477 161.052785,2359.0001 C161.052785,2352.90544 156.094766,2347.94742 150.000104,2347.94742 Z M150.000104,2348.6605 C155.701148,2348.6605 160.339709,2353.29906 160.339709,2359.0001 C160.339709,2364.70115 155.701148,2369.33971 150.000104,2369.33971 C144.29906,2369.33971 139.6605,2364.70115 139.6605,2359.0001 C139.6605,2353.29906 144.29906,2348.6605 150.000104,2348.6605 Z M150.000104,2351.5128 C145.871393,2351.5128 142.512804,2354.87139 142.512804,2359.0001 C142.512804,2363.12882 145.871393,2366.4874 150.000104,2366.4874 C154.128815,2366.4874 157.487404,2363.12882 157.487404,2359.0001 C157.487404,2354.87139 154.128815,2351.5128 150.000104,2351.5128 Z M150.000104,2352.22588 C153.735197,2352.22588 156.774328,2355.26501 156.774328,2359.0001 C156.774328,2362.7352 153.735197,2365.77433 150.000104,2365.77433 C146.265011,2365.77433 143.225881,2362.7352 143.225881,2359.0001 C143.225881,2355.26501 146.265011,2352.22588 150.000104,2352.22588 Z M150.000104,2355.07819 C147.837344,2355.07819 146.078185,2356.83806 146.078185,2359.0001 C146.078185,2361.16215 147.837344,2362.92202 150.000104,2362.92202 C152.162864,2362.92202 153.922023,2361.16215 153.922023,2359.0001 C153.922023,2356.83806 152.162864,2355.07819 150.000104,2355.07819 Z M150.000104,2355.79126 C151.769246,2355.79126 153.208947,2357.23096 153.208947,2359.0001 C153.208947,2360.76925 151.769246,2362.20895 150.000104,2362.20895 C148.230962,2362.20895 146.791261,2360.76925 146.791261,2359.0001 C146.791261,2357.23096 148.230962,2355.79126 150.000104,2355.79126 Z M99.999231,2353.7609 L99.9997581,2341.04182 C105.356973,2326.1712 117.170806,2314.35717 132.041533,2308.99984 L144.7609,2308.99923 C121.21589,2311.44839 102.448394,2330.21589 99.999231,2353.7609 Z M200.00009,2341.04082 L199.999728,2353.74891 C197.545419,2330.20931 178.779991,2311.44765 155.238689,2308.99917 L167.958181,2308.99966 C182.828808,2314.35679 194.642647,2326.17051 200.00009,2341.04082 Z M100.000092,2339.03528 L100.000475,2332.30112 C105.294143,2322.42738 113.427583,2314.29401 123.301295,2309.00041 L130.035276,2309.00009 C116.381242,2314.4715 105.471504,2325.38124 100.000092,2339.03528 Z M199.999734,2332.30112 L199.999316,2339.03328 C194.527642,2325.38018 183.618301,2314.47124 169.964932,2309.00009 L176.698775,2309.00033 C186.572549,2314.29394 194.706041,2322.42733 199.999734,2332.30112 Z M99.9997438,2330.82482 L99.9995269,2325.40879 C104.3593,2318.94026 109.940017,2313.35953 116.408505,2308.99974 L121.824817,2308.99974 C112.718559,2314.15133 105.151331,2321.71856 99.9997438,2330.82482 Z M199.999331,2325.40679 L199.999898,2330.82382 C194.848323,2321.718 187.281316,2314.15114 178.175392,2308.99974 L183.591703,2308.99974 C190.059524,2313.35908 195.639756,2318.93911 199.999331,2325.40679 Z M99.9992712,2324.14962 L100.00005,2319.38022 C103.051938,2315.53681 106.536806,2312.05194 110.380216,2309.00005 L115.149623,2308.99927 C109.255296,2313.12002 104.120024,2318.2553 99.9992712,2324.14962 Z M200.000158,2319.38022 L200.000238,2324.14862 C195.879604,2318.25472 190.744579,2313.11979 184.850586,2308.99927 L189.619491,2308.99965 C193.4631,2312.05163 196.948138,2315.53664 200.000158,2319.38022 Z M99.9999731,2318.24413 L99.9993749,2313.87144 C101.539917,2312.16623 103.166231,2310.53992 104.871441,2308.99937 L109.244127,2308.99997 C105.861149,2311.76264 102.762644,2314.86115 99.9999731,2318.24413 Z M199.99903,2313.86944 L200.000235,2318.24413 C197.237401,2314.86095 194.138692,2311.76228 190.755478,2308.99948 L195.128768,2308.99937 C196.833312,2310.53932 198.459022,2312.16496 199.99903,2313.86944 Z M99.9989836,2312.81499 L100.001856,2309.00186 L103.814992,2308.99898 C102.493561,2310.22048 101.22048,2311.49356 99.9989836,2312.81499 Z M199.998352,2309.00186 L200.0003,2312.81399 C198.779215,2311.49306 197.506585,2310.22044 196.185637,2308.99937 L199.998352,2309.00186 Z"></path>
    </g>
  </g>
</svg></g></pattern></defs></g> <defs><filter id="colors2306475068"><feColorMatrix type="matrix" values="0 0 0 0 0.05859375  0 0 0 0 0.49609375  0 0 0 0 0.875  0 0 0 1 0" class="icon-fecolormatrix"></feColorMatrix></filter> <filter id="colorsf9396943986"><feColorMatrix type="matrix" values="0 0 0 0 0.99609375  0 0 0 0 0.99609375  0 0 0 0 0.99609375  0 0 0 1 0" class="icon-fecolormatrix"></feColorMatrix></filter> <filter id="colorsb2523827008"><feColorMatrix type="matrix" values="0 0 0 0 0  0 0 0 0 0  0 0 0 0 0  0 0 0 1 0" class="icon-fecolormatrix"></feColorMatrix></filter></defs></g></g> <g transform="translate(103.12378692626953,0)"><g data-gra="path-name" fill-rule="" class="tp-name iconsvg-namesvg"><g transform="scale(0.92)"><g><path d="M17.530013562459835-9.83L17.530013562459835-9.83Q17.75976877723791-9.37 17.916024445474946-8.87 18.072280113711983-8.37 18.216786008678504-7.85L18.216786008678504-7.85Q18.45315500034724-8.38 18.706024445474945-8.87 18.94801900396739-9.35 19.26176333573035-9.85L19.26176333573035-9.85 29.923698903248543-26.56Q30.21131902856469-26.99 30.48006789491728-27.09 30.757941874634614-27.18 31.247941874634616-27.18L31.247941874634616-27.18 33.957941874634614-27.18 31.58 0 28.36 0 30.1071486106127-19.97Q30.142144076023072-20.37 30.202388861244994-20.83 30.26175875983166-21.28 30.343753318324108-21.76L30.343753318324108-21.76 19.5364460383834-4.76Q18.99208067438636-3.91 18.132080674386362-3.91L18.132080674386362-3.91 17.602080674386364-3.91Q16.752080674386363-3.91 16.346446038383398-4.76L16.346446038383398-4.76 8.318127751500402-21.81Q8.3352583063727-21.32 8.324138634515515-20.85 8.312144076023072-20.37 8.277148610612702-19.97L8.277148610612702-19.97 6.53 0 3.3 0 5.677941874634614-27.18 8.387941874634613-27.18Q8.887941874634613-27.18 9.14006789491728-27.09 9.40131902856469-26.99 9.603698903248542-26.56L9.603698903248542-26.56 17.530013562459835-9.83ZM52.07794187463462-27.18L60.57 0 57.72 0Q57.23 0 56.95187216588148-0.25 56.6628694451277-0.49 56.546115137267556-0.87L56.546115137267556-0.87 54.580915656632875-7.44 42.38091565663287-7.44 39.266115137267555-0.87Q39.106368991668745-0.53 38.763621939152-0.27 38.41 0 37.94 0L37.94 0 35.09 0 48.337941874634616-27.18 52.07794187463462-27.18ZM48.86863546030278-21.13L43.642760614976574-10.09 53.79276061497657-10.09 50.49038523357329-21.15Q50.16049855700499-22.18 49.89435621219966-23.71L49.89435621219966-23.71Q49.616115054649434-22.93 49.35924742335759-22.28 49.10237979206574-21.63 48.86863546030278-21.13L48.86863546030278-21.13ZM80.9792202158198-24.68L79.93611505464945-22.93Q79.74161822886218-22.65 79.53936981596854-22.51 79.33624651643966-22.36 79.02624651643966-22.36L79.02624651643966-22.36Q78.70624651643966-22.36 78.3051177754032-22.69 77.91311414773152-23.01 77.28723472650661-23.4 76.67135530528174-23.79 75.77935167761002-24.11 74.88734804993832-24.43 73.57734804993832-24.43L73.57734804993832-24.43Q72.34734804993832-24.43 71.36847679097477-24.1 70.38960553201122-23.77 69.69973699380144-23.2 69.01986845559166-22.63 68.6325021846767-21.86 68.23513591376174-21.09 68.15727100322367-20.2L68.15727100322367-20.2Q68.05753392680411-19.06 68.55191742915967-18.31 69.04717581815049-17.57 69.91993193984649-17.03 70.79356294817774-16.5 71.92944236940264-16.11 73.06619667726278-15.73 74.2494514385819-15.31 75.432706199901-14.89 76.55721209486752-14.37 77.68171798983404-13.85 78.5317270590133-13.05 79.38173612819257-12.25 79.84112416513776-11.1 80.28963731544769-9.94 80.14178147408887-8.25L80.14178147408887-8.25Q79.98605165301274-6.47 79.24869445127702-4.9 78.50221213617658-3.34 77.23072528648652-2.18 75.96923843679643-1.02 74.21149591886935-0.36 72.45375340094223 0.3 70.29375340094222 0.3L70.29375340094222 0.3Q67.65375340094224 0.3 65.56686763129186-0.65 63.48085674827674-1.61 62.083463269823994-3.24L62.083463269823994-3.24 63.29656843099436-4.99Q63.474941050334806-5.2 63.69718946322843-5.34 63.929437876122066-5.48 64.19943787612206-5.48L64.19943787612206-5.48Q64.59943787612207-5.48 65.07269263744116-5.06 65.54507251212503-4.63 66.2704532937268-4.12 66.99495918869333-3.6 68.04821395001244-3.18 69.10059382469629-2.75 70.6705938246963-2.75L70.6705938246963-2.75Q71.98059382469629-2.75 73.04208974356563-3.11 74.09358566243496-3.47 74.86132818036207-4.13 75.62819581165391-4.78 76.0878104954625-5.69 76.5474251792711-6.6 76.64541248242013-7.72L76.64541248242013-7.72Q76.75302353855702-8.95 76.26213958274249-9.74 75.77125562692797-10.53 74.90762461859671-11.06 74.04399361026546-11.59 72.91636441577006-11.96 71.77873522127464-12.33 70.59285580004976-12.72 69.39697637882486-13.11 68.28159559722309-13.62 67.15621481562131-14.13 66.31795551971257-14.95 65.47882133716855-15.76 65.02643239330544-16.99 64.57316856280707-18.21 64.73064815715374-20.01L64.73064815715374-20.01Q64.85663183263107-21.45 65.53474152839107-22.8 66.21285122415105-24.15 67.36383943421802-25.19 68.51482764428499-26.23 70.13994550230632-26.86 71.75506336032764-27.49 73.78506336032764-27.49L73.78506336032764-27.49Q76.06506336032764-27.49 77.88207152258899-26.77 79.68820479821505-26.04 80.9792202158198-24.68L80.9792202158198-24.68ZM94.9354668974957-2.92L94.9354668974957-2.92Q96.6154668974957-2.92 97.99533543570547-3.49 99.37520397391525-4.06 100.38444241071169-5.08 101.3945557341434-6.11 101.99878963635021-7.53 102.61302353855702-8.95 102.76262915318635-10.66L102.76262915318635-10.66 104.20794187463461-27.18 107.86794187463461-27.18 106.42262915318635-10.66Q106.21703079390042-8.31 105.29117858021331-6.3 104.3653263665262-4.29 102.8467180311431-2.82 101.31810969576-1.35 99.23461921839822-0.51 97.15200362767172 0.32 94.65200362767172 0.32L94.65200362767172 0.32Q92.14200362767171 0.32 90.20461921839822-0.51 88.26810969576-1.35 86.9967180311431-2.82 85.71532636652621-4.29 85.14117858021332-6.3 84.56703079390043-8.31 84.77262915318636-10.66L84.77262915318636-10.66 86.21794187463462-27.18 89.88794187463462-27.18 88.44437892645688-10.68Q88.29477331182754-8.97 88.65053940962072-7.55 89.00630550741391-6.13 89.8361921839822-5.1 90.66695374718577-4.08 91.95621032234074-3.5 93.24546689749569-2.92 94.9354668974957-2.92ZM136.55809605068205-13.58L136.55809605068205-13.58Q136.29125562692798-10.53 135.10165908147792-8.02 133.9129374226631-5.52 131.99720760158695-3.74 130.07060289387556-1.95 127.5257388902554-0.98 124.97 0 121.97 0L121.97 0 111.81 0 114.18794187463462-27.18 124.34794187463461-27.18Q127.34794187463461-27.18 129.73307787101447-26.21 132.10733898075907-25.23 133.72073427304764-23.44 135.323254678701-21.64 136.0745330198862-19.14 136.82581136107137-16.64 136.55809605068205-13.58ZM132.77809605068205-13.58L132.77809605068205-13.58Q132.9976925961321-16.09 132.49004526327818-18.06 131.97239793042425-20.03 130.84225739945478-21.4 129.71124198185004-22.76 127.99423381958869-23.48 126.26722565732737-24.2 124.08722565732737-24.2L124.08722565732737-24.2 117.61722565732737-24.2 115.76071621730725-2.98 122.23071621730725-2.98Q124.41071621730725-2.98 126.26370805504591-3.7 128.10669989278458-4.42 129.47568447517983-5.78 130.84379417093984-7.13 131.70702172472116-9.11 132.55937439186724-11.08 132.77809605068205-13.58Z" transform="translate(-3.299999952316284, 27.489999771118164)"></path></g> <!----> <!----> <!----> <!----> <!----> <!----> <g data-gra="path-name-1" fill="#333333" transform="translate(0,30.809999465942383)"><g transform="scale(1)"><path d="M17.177941874634616-27.18L25.67 0 22.82 0Q22.33 0 22.04187216588148-0.25 21.762869445127702-0.49 21.646115137267554-0.87L21.646115137267554-0.87 19.680915656632877-7.44 7.480915656632875-7.44 4.3661151372675535-0.87Q4.19636899166874-0.53 3.8536219391519997-0.27 3.51 0 3.04 0L3.04 0 0.19 0 13.437941874634614-27.18 17.177941874634616-27.18ZM13.968635460302773-21.13L8.732760614976574-10.09 18.882760614976572-10.09 15.580385233573294-21.15Q15.260498557004995-22.18 14.994356212199659-23.71L14.994356212199659-23.71Q14.716115054649439-22.93 14.459247423357587-22.28 14.202379792065736-21.63 13.968635460302773-21.13L13.968635460302773-21.13ZM43.33001356245983-9.83L43.33001356245983-9.83Q43.55976877723791-9.37 43.71602444547494-8.87 43.87228011371199-8.37 44.0167860086785-7.85L44.0167860086785-7.85Q44.25315500034725-8.38 44.496024445474944-8.87 44.748019003967386-9.35 45.061763335730355-9.85L45.061763335730355-9.85 55.72369890324854-26.56Q56.011319028564685-26.99 56.28006789491728-27.09 56.557941874634615-27.18 57.04794187463462-27.18L57.04794187463462-27.18 59.75794187463462-27.18 57.38 0 54.16 0 55.9071486106127-19.97Q55.94214407602307-20.37 56.002388861244995-20.83 56.06175875983167-21.28 56.1337533183241-21.76L56.1337533183241-21.76 45.3364460383834-4.76Q44.79208067438636-3.91 43.93208067438636-3.91L43.93208067438636-3.91 43.40208067438636-3.91Q42.55208067438636-3.91 42.146446038383395-4.76L42.146446038383395-4.76 34.1181277515004-21.81Q34.135258306372705-21.32 34.12413863451551-20.85 34.10214407602307-20.37 34.067148610612705-19.97L34.067148610612705-19.97 32.32 0 29.1 0 31.477941874634617-27.18 34.18794187463461-27.18Q34.67794187463461-27.18 34.940067894917284-27.09 35.20131902856469-26.99 35.40369890324854-26.56L35.40369890324854-26.56 43.33001356245983-9.83ZM77.87794187463462-27.18L86.37 0 83.52 0Q83.03 0 82.75187216588148-0.25 82.46286944512771-0.49 82.34611513726755-0.87L82.34611513726755-0.87 80.38091565663288-7.44 68.18091565663288-7.44 65.06611513726754-0.87Q64.90636899166874-0.53 64.553621939152-0.27 64.21 0 63.74 0L63.74 0 60.89 0 74.13794187463462-27.18 77.87794187463462-27.18ZM74.66863546030277-21.13L69.44276061497658-10.09 79.58276061497658-10.09 76.29038523357329-21.15Q75.960498557005-22.18 75.69435621219966-23.71L75.69435621219966-23.71Q75.41611505464944-22.93 75.15924742335758-22.28 74.90237979206574-21.63 74.66863546030277-21.13L74.66863546030277-21.13ZM106.7792202158198-24.68L105.72611505464944-22.93Q105.53161822886217-22.65 105.32936981596855-22.51 105.12624651643966-22.36 104.82624651643967-22.36L104.82624651643967-22.36Q104.50624651643966-22.36 104.10511777540322-22.69 103.70311414773151-23.01 103.08723472650662-23.4 102.47135530528173-23.79 101.57935167761002-24.11 100.68734804993832-24.43 99.37734804993832-24.43L99.37734804993832-24.43Q98.13734804993832-24.43 97.16847679097476-24.1 96.18960553201121-23.77 95.49973699380143-23.2 94.81986845559166-22.63 94.4225021846767-21.86 94.03513591376174-21.09 93.95727100322367-20.2L93.95727100322367-20.2Q93.85753392680411-19.06 94.35191742915967-18.31 94.84717581815049-17.57 95.71993193984649-17.03 96.59356294817775-16.5 97.72944236940263-16.11 98.85619667726279-15.73 100.04945143858188-15.31 101.23270619990102-14.89 102.35721209486752-14.37 103.47171798983405-13.85 104.32172705901331-13.05 105.17173612819256-12.25 105.63112416513775-11.1 106.08963731544769-9.94 105.94178147408887-8.25L105.94178147408887-8.25Q105.78605165301273-6.47 105.04869445127703-4.9 104.30221213617659-3.34 103.03072528648651-2.18 101.76923843679644-1.02 100.01149591886934-0.36 98.25375340094223 0.3 96.09375340094223 0.3L96.09375340094223 0.3Q93.45375340094223 0.3 91.36686763129185-0.65 89.28085674827673-1.61 87.88346326982399-3.24L87.88346326982399-3.24 89.09656843099435-4.99Q89.26494105033481-5.2 89.49718946322844-5.34 89.72943787612206-5.48 89.99943787612206-5.48L89.99943787612206-5.48Q90.38943787612206-5.48 90.87269263744118-5.06 91.34507251212503-4.63 92.0704532937268-4.12 92.79495918869333-3.6 93.84821395001244-3.18 94.90059382469629-2.75 96.4705938246963-2.75L96.4705938246963-2.75Q97.7805938246963-2.75 98.83208974356563-3.11 99.89358566243496-3.47 100.66132818036206-4.13 101.42819581165392-4.78 101.8878104954625-5.69 102.3474251792711-6.6 102.44541248242012-7.72L102.44541248242012-7.72Q102.55302353855701-8.95 102.06213958274249-9.74 101.57125562692798-10.53 100.70762461859671-11.06 99.84399361026546-11.59 98.70636441577005-11.96 97.57873522127464-12.33 96.38285580004975-12.72 95.19697637882486-13.11 94.07159559722308-13.62 92.95621481562131-14.13 92.11795551971257-14.95 91.27882133716857-15.76 90.82643239330545-16.99 90.37316856280708-18.21 90.53064815715373-20.01L90.53064815715373-20.01Q90.65663183263108-21.45 91.33474152839108-22.8 92.01285122415106-24.15 93.16383943421802-25.19 94.31482764428499-26.23 95.93994550230632-26.86 97.55506336032765-27.49 99.58506336032765-27.49L99.58506336032765-27.49Q101.86506336032764-27.49 103.67207152258898-26.77 105.48820479821505-26.04 106.7792202158198-24.68L106.7792202158198-24.68ZM120.72546689749569-2.92L120.72546689749569-2.92Q122.41546689749569-2.92 123.79533543570547-3.49 125.17520397391525-4.06 126.18444241071168-5.08 127.19455573414339-6.11 127.79878963635021-7.53 128.413023538557-8.95 128.56262915318635-10.66L128.56262915318635-10.66 130.0079418746346-27.18 133.6679418746346-27.18 132.22262915318635-10.66Q132.01703079390043-8.31 131.09117858021332-6.3 130.16532636652622-4.29 128.6367180311431-2.82 127.11810969576-1.35 125.03461921839822-0.51 122.95200362767171 0.32 120.44200362767171 0.32L120.44200362767171 0.32Q117.94200362767171 0.32 116.00461921839822-0.51 114.06810969576-1.35 112.7967180311431-2.82 111.51532636652621-4.29 110.94117858021332-6.3 110.36703079390043-8.31 110.57262915318636-10.66L110.57262915318636-10.66 112.01794187463462-27.18 115.67794187463461-27.18 114.23437892645687-10.68Q114.08477331182753-8.97 114.45053940962073-7.55 114.80630550741391-6.13 115.6361921839822-5.1 116.46695374718577-4.08 117.75621032234073-3.5 119.0454668974957-2.92 120.72546689749569-2.92Z" transform="translate(-0.1899999976158142, 27.489999771118164)"></path></g></g></g></g> <!----></g></g><defs v-gra="od"></defs></svg>